<mxfile host="app.diagrams.net" agent="Mozilla/5.0 (Windows NT 10.0; Win64; x64) AppleWebKit/537.36 (KHTML, like Gecko) Chrome/136.0.0.0 Safari/537.36" version="27.0.6">
  <diagram name="Data Classification Policy Activity" id="0">
    <mxGraphModel dx="1426" dy="743" grid="1" gridSize="10" guides="1" tooltips="1" connect="1" arrows="1" fold="1" page="1" pageScale="1" pageWidth="850" pageHeight="1100" math="0" shadow="0">
      <root>
        <mxCell id="0" />
        <mxCell id="1" parent="0" />
        <mxCell id="2" value="Security Team" style="swimlane" parent="1" vertex="1">
          <mxGeometry width="280" height="1100" as="geometry" />
        </mxCell>
        <mxCell id="5" value="" style="ellipse;whiteSpace=wrap;html=1;aspect=fixed;fillColor=#000000;" parent="2" vertex="1">
          <mxGeometry x="120" y="20" width="30" height="30" as="geometry" />
        </mxCell>
        <mxCell id="6" value="Create Draft / Data Classification and Protection Policy" style="rounded=1;whiteSpace=wrap;html=1;" parent="2" vertex="1">
          <mxGeometry x="35" y="70" width="200" height="60" as="geometry" />
        </mxCell>
        <mxCell id="7" value="Review Draft with Legal, Compliance and Security Teams" style="rounded=1;whiteSpace=wrap;html=1;" parent="2" vertex="1">
          <mxGeometry x="35" y="150" width="200" height="60" as="geometry" />
        </mxCell>
        <mxCell id="8" value="Policy Approved Internally?" style="rhombus;whiteSpace=wrap;html=1;" parent="2" vertex="1">
          <mxGeometry x="75" y="230" width="120" height="80" as="geometry" />
        </mxCell>
        <mxCell id="e1" style="endArrow=none;" parent="2" source="5" target="6" edge="1">
          <mxGeometry relative="1" as="geometry" />
        </mxCell>
        <mxCell id="e2" style="endArrow=none;" parent="2" source="6" target="7" edge="1">
          <mxGeometry relative="1" as="geometry" />
        </mxCell>
        <mxCell id="e3" style="endArrow=block;" parent="2" source="7" target="8" edge="1">
          <mxGeometry relative="1" as="geometry" />
        </mxCell>
        <mxCell id="e4" value="No" style="endArrow=block;" parent="2" source="8" target="9" edge="1">
          <mxGeometry relative="1" as="geometry" />
        </mxCell>
        <mxCell id="e5" value="Yes" style="endArrow=block;" parent="2" source="8" target="10" edge="1">
          <mxGeometry relative="1" as="geometry" />
        </mxCell>
        <mxCell id="11" value="Develop Training Modules and Communication Plan" style="rounded=1;whiteSpace=wrap;html=1;" parent="2" vertex="1">
          <mxGeometry x="40" y="400" width="200" height="60" as="geometry" />
        </mxCell>
        <mxCell id="13" value="Track (Considered Enforced Organization-Wide)" style="rounded=1;whiteSpace=wrap;html=1;" parent="2" vertex="1">
          <mxGeometry x="40" y="550" width="200" height="60" as="geometry" />
        </mxCell>
        <mxCell id="3" value="Executive Team" style="swimlane" parent="1" vertex="1">
          <mxGeometry x="280" width="280" height="1100" as="geometry" />
        </mxCell>
        <mxCell id="9" value="Revise Policy" style="rounded=1;whiteSpace=wrap;html=1;" parent="3" vertex="1">
          <mxGeometry x="40" y="230" width="200" height="60" as="geometry" />
        </mxCell>
        <mxCell id="10" value="Executives Publicly Champion Policy (e.g., Town Hall, Email)" style="rounded=1;whiteSpace=wrap;html=1;" parent="3" vertex="1">
          <mxGeometry x="40" y="320" width="200" height="60" as="geometry" />
        </mxCell>
        <mxCell id="4" value="All Employees" style="swimlane" parent="1" vertex="1">
          <mxGeometry x="560" width="280" height="1100" as="geometry" />
        </mxCell>
        <mxCell id="14" value="" style="ellipse;whiteSpace=wrap;html=1;aspect=fixed;fillColor=#000000;" parent="4" vertex="1">
          <mxGeometry x="110" y="640" width="30" height="30" as="geometry" />
        </mxCell>
        <mxCell id="12" value="Roll Out Training to All Employees" style="rounded=1;whiteSpace=wrap;html=1;" parent="4" vertex="1">
          <mxGeometry x="40" y="400" width="200" height="60" as="geometry" />
        </mxCell>
        <mxCell id="e6" style="endArrow=block;" parent="1" source="10" target="11" edge="1">
          <mxGeometry relative="1" as="geometry" />
        </mxCell>
        <mxCell id="e7" style="endArrow=block;" parent="1" source="11" target="12" edge="1">
          <mxGeometry relative="1" as="geometry" />
        </mxCell>
        <mxCell id="e9" style="endArrow=none;" parent="1" source="13" target="14" edge="1">
          <mxGeometry relative="1" as="geometry" />
        </mxCell>
        <mxCell id="e8" style="endArrow=block;" parent="1" source="12" target="13" edge="1">
          <mxGeometry relative="1" as="geometry" />
        </mxCell>
      </root>
    </mxGraphModel>
  </diagram>
</mxfile>
